<?xml version="1.0" encoding="UTF-8" standalone="no"?>
<!DOCTYPE svg PUBLIC "-//W3C//DTD SVG 1.1//EN"
 "http://www.w3.org/Graphics/SVG/1.1/DTD/svg11.dtd">
<!-- Generated by graphviz version 2.38.0 (20140413.2041)
 -->
<!-- Title: controllers_diagram Pages: 1 -->
<svg width="382pt" height="327pt"
 viewBox="0.00 0.00 382.00 326.50" xmlns="http://www.w3.org/2000/svg" xmlns:xlink="http://www.w3.org/1999/xlink">
<g id="graph0" class="graph" transform="scale(1 1) rotate(0) translate(124 203)">
<title>controllers_diagram</title>
<polygon fill="none" stroke="none" points="-124,123.5 -124,-203 258,-203 258,123.5 -124,123.5"/>
<!-- _diagram_info -->
<g id="node1" class="node"><title>_diagram_info</title>
<text text-anchor="start" x="-112" y="-18.6" font-family="Times,serif" font-size="13.00">Controllers diagram</text>
<text text-anchor="start" x="-112" y="-4.6" font-family="Times,serif" font-size="13.00">Date: Mar 08 2018 &#45; 12:49</text>
<text text-anchor="start" x="-112" y="9.4" font-family="Times,serif" font-size="13.00">Migration version: 20180228213816</text>
<text text-anchor="start" x="-112" y="23.4" font-family="Times,serif" font-size="13.00">Generated by RailRoady 1.5.3</text>
<text text-anchor="start" x="-112" y="37.4" font-family="Times,serif" font-size="13.00">http://railroady.prestonlee.com</text>
</g>
<!-- PagesController -->
<g id="node2" class="node"><title>PagesController</title>
<path fill="none" stroke="black" d="M132,119C132,119 212,119 212,119 218,119 224,113 224,107 224,107 224,23 224,23 224,17 218,11 212,11 212,11 132,11 132,11 126,11 120,17 120,23 120,23 120,107 120,107 120,113 126,119 132,119"/>
<text text-anchor="middle" x="172" y="26.2" font-family="Times,serif" font-size="14.00">PagesController</text>
<polyline fill="none" stroke="black" points="120,34 224,34 "/>
<text text-anchor="start" x="128" y="49.2" font-family="Times,serif" font-size="14.00">home</text>
<text text-anchor="start" x="128" y="64.2" font-family="Times,serif" font-size="14.00">search</text>
<polyline fill="none" stroke="black" points="120,72 224,72 "/>
<polyline fill="none" stroke="black" points="120,96 224,96 "/>
<text text-anchor="start" x="128" y="111.2" font-family="Times,serif" font-size="14.00">_layout</text>
</g>
<!-- InteractionsController -->
<g id="node3" class="node"><title>InteractionsController</title>
<path fill="none" stroke="black" d="M-93,-105.5C-93,-105.5 19,-105.5 19,-105.5 25,-105.5 31,-111.5 31,-117.5 31,-117.5 31,-186.5 31,-186.5 31,-192.5 25,-198.5 19,-198.5 19,-198.5 -93,-198.5 -93,-198.5 -99,-198.5 -105,-192.5 -105,-186.5 -105,-186.5 -105,-117.5 -105,-117.5 -105,-111.5 -99,-105.5 -93,-105.5"/>
<text text-anchor="middle" x="-37" y="-183.3" font-family="Times,serif" font-size="14.00">InteractionsController</text>
<polyline fill="none" stroke="black" points="-105,-175.5 31,-175.5 "/>
<text text-anchor="start" x="-97" y="-160.3" font-family="Times,serif" font-size="14.00">create</text>
<polyline fill="none" stroke="black" points="-105,-152.5 31,-152.5 "/>
<polyline fill="none" stroke="black" points="-105,-128.5 31,-128.5 "/>
<text text-anchor="start" x="-97" y="-113.3" font-family="Times,serif" font-size="14.00">_layout</text>
</g>
<!-- ApplicationController -->
<g id="node4" class="node"><title>ApplicationController</title>
<path fill="none" stroke="black" d="M72,-60.5C72,-60.5 242,-60.5 242,-60.5 248,-60.5 254,-66.5 254,-72.5 254,-72.5 254,-141.5 254,-141.5 254,-147.5 248,-153.5 242,-153.5 242,-153.5 72,-153.5 72,-153.5 66,-153.5 60,-147.5 60,-141.5 60,-141.5 60,-72.5 60,-72.5 60,-66.5 66,-60.5 72,-60.5"/>
<text text-anchor="middle" x="157" y="-138.3" font-family="Times,serif" font-size="14.00">ApplicationController</text>
<polyline fill="none" stroke="black" points="60,-130.5 254,-130.5 "/>
<polyline fill="none" stroke="black" points="60,-106.5 254,-106.5 "/>
<text text-anchor="start" x="68" y="-91.3" font-family="Times,serif" font-size="14.00">configure_permitted_parameters</text>
<polyline fill="none" stroke="black" points="60,-83.5 254,-83.5 "/>
<text text-anchor="start" x="68" y="-68.3" font-family="Times,serif" font-size="14.00">_layout</text>
</g>
</g>
</svg>
