<?xml version="1.0" encoding="UTF-8" standalone="no"?>
<!DOCTYPE svg PUBLIC "-//W3C//DTD SVG 1.1//EN"
 "http://www.w3.org/Graphics/SVG/1.1/DTD/svg11.dtd">
<!-- Generated by graphviz version 2.38.0 (20140413.2041)
 -->
<!-- Title: models_diagram Pages: 1 -->
<svg width="501pt" height="173pt"
 viewBox="0.00 0.00 501.00 173.00" xmlns="http://www.w3.org/2000/svg" xmlns:xlink="http://www.w3.org/1999/xlink">
<g id="graph0" class="graph" transform="scale(1 1) rotate(0) translate(4 169)">
<title>models_diagram</title>
<polygon fill="none" stroke="none" points="-4,4 -4,-169 497,-169 497,4 -4,4"/>
<!-- _diagram_info -->
<g id="node1" class="node"><title>_diagram_info</title>
<text text-anchor="start" x="8" y="-150.6" font-family="Times,serif" font-size="13.00">Models diagram</text>
<text text-anchor="start" x="8" y="-136.6" font-family="Times,serif" font-size="13.00">Date: Mar 08 2018 &#45; 12:49</text>
<text text-anchor="start" x="8" y="-122.6" font-family="Times,serif" font-size="13.00">Migration version: 20180228213816</text>
<text text-anchor="start" x="8" y="-108.6" font-family="Times,serif" font-size="13.00">Generated by RailRoady 1.5.3</text>
<text text-anchor="start" x="8" y="-94.6" font-family="Times,serif" font-size="13.00">http://railroady.prestonlee.com</text>
</g>
<!-- Match -->
<g id="node2" class="node"><title>Match</title>
<ellipse fill="none" stroke="black" cx="161" cy="-18" rx="33.5952" ry="18"/>
<text text-anchor="middle" x="161" y="-14.3" font-family="Times,serif" font-size="14.00">Match</text>
</g>
<!-- ApplicationRecord -->
<g id="node3" class="node"><title>ApplicationRecord</title>
<ellipse fill="none" stroke="black" cx="382" cy="-126" rx="77.1866" ry="18"/>
<text text-anchor="middle" x="382" y="-122.3" font-family="Times,serif" font-size="14.00">ApplicationRecord</text>
</g>
<!-- User -->
<g id="node4" class="node"><title>User</title>
<ellipse fill="none" stroke="black" cx="259" cy="-126" rx="27.0966" ry="18"/>
<text text-anchor="middle" x="259" y="-122.3" font-family="Times,serif" font-size="14.00">User</text>
</g>
<!-- User&#45;&gt;Match -->
<g id="edge3" class="edge"><title>User&#45;&gt;Match</title>
<path fill="none" stroke="#c1b8b8" d="M242.869,-103.242C237.246,-97.0831 230.456,-90.9798 223,-87 180.844,-64.4977 147.832,-105.508 117,-69 108.004,-58.3471 117.245,-46.6362 129.539,-37.2276"/>
<ellipse fill="none" stroke="#c1b8b8" cx="245.486" cy="-106.302" rx="4.00002" ry="4.00002"/>
<polygon fill="#c1b8b8" stroke="#c1b8b8" points="129.689,-37.1231 140.468,-35.1054 133.794,-34.2674 137.898,-31.4116 137.898,-31.4116 137.898,-31.4116 133.794,-34.2674 135.328,-27.7178 129.689,-37.1231 129.689,-37.1231"/>
<text text-anchor="middle" x="153" y="-57.8" font-family="Times,serif" font-size="14.00">matches_one</text>
</g>
<!-- User&#45;&gt;Match -->
<g id="edge4" class="edge"><title>User&#45;&gt;Match</title>
<path fill="none" stroke="#2d3b1c" d="M239.844,-104.28C223.322,-86.4098 199.49,-60.6323 182.358,-42.1016"/>
<ellipse fill="none" stroke="#2d3b1c" cx="242.658" cy="-107.324" rx="4.00002" ry="4.00002"/>
<polygon fill="#2d3b1c" stroke="#2d3b1c" points="182.255,-41.9905 178.771,-31.5929 178.861,-38.3192 175.467,-34.6478 175.467,-34.6478 175.467,-34.6478 178.861,-38.3192 172.163,-37.7027 182.255,-41.9905 182.255,-41.9905"/>
<text text-anchor="middle" x="244.5" y="-57.8" font-family="Times,serif" font-size="14.00">matches_two</text>
</g>
<!-- Interaction -->
<g id="node5" class="node"><title>Interaction</title>
<ellipse fill="none" stroke="black" cx="363" cy="-18" rx="48.9926" ry="18"/>
<text text-anchor="middle" x="363" y="-14.3" font-family="Times,serif" font-size="14.00">Interaction</text>
</g>
<!-- User&#45;&gt;Interaction -->
<g id="edge1" class="edge"><title>User&#45;&gt;Interaction</title>
<path fill="none" stroke="#9b1e46" d="M271.991,-101.38C280.857,-86.6384 293.579,-67.8918 308,-54 313.846,-48.3685 320.733,-43.1453 327.619,-38.5438"/>
<ellipse fill="none" stroke="#9b1e46" cx="269.74" cy="-105.225" rx="4.00002" ry="4.00002"/>
<polygon fill="#9b1e46" stroke="#9b1e46" points="327.817,-38.4184 338.672,-36.8641 332.04,-35.741 336.262,-33.0636 336.262,-33.0636 336.262,-33.0636 332.04,-35.741 333.853,-29.2631 327.817,-38.4184 327.817,-38.4184"/>
<text text-anchor="middle" x="353" y="-57.8" font-family="Times,serif" font-size="14.00">interactions_one</text>
</g>
<!-- User&#45;&gt;Interaction -->
<g id="edge2" class="edge"><title>User&#45;&gt;Interaction</title>
<path fill="none" stroke="#f2fe50" d="M275.693,-103.273C281.478,-97.1154 288.431,-91.0052 296,-87 336.688,-65.4694 368.412,-104.266 398,-69 405.289,-60.3118 400.365,-50.1485 392.167,-41.2623"/>
<ellipse fill="none" stroke="#f2fe50" cx="272.963" cy="-106.369" rx="4.00002" ry="4.00002"/>
<polygon fill="#f2fe50" stroke="#f2fe50" points="391.948,-41.0541 387.809,-30.8995 388.327,-37.6064 384.706,-34.1586 384.706,-34.1586 384.706,-34.1586 388.327,-37.6064 381.603,-37.4177 391.948,-41.0541 391.948,-41.0541"/>
<text text-anchor="middle" x="447.5" y="-57.8" font-family="Times,serif" font-size="14.00">interactions_two</text>
</g>
</g>
</svg>
