<?xml version="1.0" encoding="UTF-8" standalone="no"?>
<!DOCTYPE svg PUBLIC "-//W3C//DTD SVG 1.1//EN"
 "http://www.w3.org/Graphics/SVG/1.1/DTD/svg11.dtd">
<!-- Generated by graphviz version 2.38.0 (20140413.2041)
 -->
<!-- Title: models_diagram Pages: 1 -->
<svg width="726pt" height="438pt"
 viewBox="0.00 0.00 726.34 438.00" xmlns="http://www.w3.org/2000/svg" xmlns:xlink="http://www.w3.org/1999/xlink">
<g id="graph0" class="graph" transform="scale(1 1) rotate(0) translate(4 434)">
<title>models_diagram</title>
<polygon fill="none" stroke="none" points="-4,4 -4,-434 722.343,-434 722.343,4 -4,4"/>
<!-- _diagram_info -->
<g id="node1" class="node"><title>_diagram_info</title>
<text text-anchor="start" x="8" y="-326.1" font-family="Times,serif" font-size="13.00">Models diagram</text>
<text text-anchor="start" x="8" y="-312.1" font-family="Times,serif" font-size="13.00">Date: Mar 08 2018 &#45; 12:49</text>
<text text-anchor="start" x="8" y="-298.1" font-family="Times,serif" font-size="13.00">Migration version: 20180228213816</text>
<text text-anchor="start" x="8" y="-284.1" font-family="Times,serif" font-size="13.00">Generated by RailRoady 1.5.3</text>
<text text-anchor="start" x="8" y="-270.1" font-family="Times,serif" font-size="13.00">http://railroady.prestonlee.com</text>
</g>
<!-- Match -->
<g id="node2" class="node"><title>Match</title>
<path fill="none" stroke="black" d="M146,-8C146,-8 366,-8 366,-8 372,-8 378,-14 378,-20 378,-20 378,-102 378,-102 378,-108 372,-114 366,-114 366,-114 146,-114 146,-114 140,-114 134,-108 134,-102 134,-102 134,-20 134,-20 134,-14 140,-8 146,-8"/>
<text text-anchor="middle" x="256" y="-98.8" font-family="Times,serif" font-size="14.00">Match</text>
<polyline fill="none" stroke="black" points="134,-91 378,-91 "/>
<text text-anchor="start" x="142" y="-75.8" font-family="Times,serif" font-size="14.00">id :bigint</text>
<text text-anchor="start" x="142" y="-60.8" font-family="Times,serif" font-size="14.00">user_one_id :integer</text>
<text text-anchor="start" x="142" y="-45.8" font-family="Times,serif" font-size="14.00">user_two_id :integer</text>
<text text-anchor="start" x="142" y="-30.8" font-family="Times,serif" font-size="14.00">created_at :timestamp without time zone</text>
<text text-anchor="start" x="142" y="-15.8" font-family="Times,serif" font-size="14.00">updated_at :timestamp without time zone</text>
</g>
<!-- ApplicationRecord -->
<g id="node3" class="node"><title>ApplicationRecord</title>
<ellipse fill="none" stroke="black" cx="641" cy="-301.5" rx="77.1866" ry="18"/>
<text text-anchor="middle" x="641" y="-297.8" font-family="Times,serif" font-size="14.00">ApplicationRecord</text>
</g>
<!-- User -->
<g id="node4" class="node"><title>User</title>
<path fill="none" stroke="black" d="M244.5,-173.5C244.5,-173.5 533.5,-173.5 533.5,-173.5 539.5,-173.5 545.5,-179.5 545.5,-185.5 545.5,-185.5 545.5,-417.5 545.5,-417.5 545.5,-423.5 539.5,-429.5 533.5,-429.5 533.5,-429.5 244.5,-429.5 244.5,-429.5 238.5,-429.5 232.5,-423.5 232.5,-417.5 232.5,-417.5 232.5,-185.5 232.5,-185.5 232.5,-179.5 238.5,-173.5 244.5,-173.5"/>
<text text-anchor="middle" x="389" y="-414.3" font-family="Times,serif" font-size="14.00">User</text>
<polyline fill="none" stroke="black" points="232.5,-406.5 545.5,-406.5 "/>
<text text-anchor="start" x="240.5" y="-391.3" font-family="Times,serif" font-size="14.00">id :bigint</text>
<text text-anchor="start" x="240.5" y="-376.3" font-family="Times,serif" font-size="14.00">email :character varying</text>
<text text-anchor="start" x="240.5" y="-361.3" font-family="Times,serif" font-size="14.00">encrypted_password :character varying</text>
<text text-anchor="start" x="240.5" y="-346.3" font-family="Times,serif" font-size="14.00">reset_password_token :character varying</text>
<text text-anchor="start" x="240.5" y="-331.3" font-family="Times,serif" font-size="14.00">reset_password_sent_at :timestamp without time zone</text>
<text text-anchor="start" x="240.5" y="-316.3" font-family="Times,serif" font-size="14.00">remember_created_at :timestamp without time zone</text>
<text text-anchor="start" x="240.5" y="-301.3" font-family="Times,serif" font-size="14.00">sign_in_count :integer</text>
<text text-anchor="start" x="240.5" y="-286.3" font-family="Times,serif" font-size="14.00">current_sign_in_at :timestamp without time zone</text>
<text text-anchor="start" x="240.5" y="-271.3" font-family="Times,serif" font-size="14.00">last_sign_in_at :timestamp without time zone</text>
<text text-anchor="start" x="240.5" y="-256.3" font-family="Times,serif" font-size="14.00">current_sign_in_ip :inet</text>
<text text-anchor="start" x="240.5" y="-241.3" font-family="Times,serif" font-size="14.00">last_sign_in_ip :inet</text>
<text text-anchor="start" x="240.5" y="-226.3" font-family="Times,serif" font-size="14.00">created_at :timestamp without time zone</text>
<text text-anchor="start" x="240.5" y="-211.3" font-family="Times,serif" font-size="14.00">updated_at :timestamp without time zone</text>
<text text-anchor="start" x="240.5" y="-196.3" font-family="Times,serif" font-size="14.00">age :integer</text>
<text text-anchor="start" x="240.5" y="-181.3" font-family="Times,serif" font-size="14.00">gender :character varying</text>
</g>
<!-- User&#45;&gt;Match -->
<g id="edge3" class="edge"><title>User&#45;&gt;Match</title>
<path fill="none" stroke="#9b2195" d="M251.919,-165.933C250.146,-162.334 248.501,-158.688 247,-155 243.147,-145.535 241.735,-135.096 241.797,-124.736"/>
<ellipse fill="none" stroke="#9b2195" cx="253.885" cy="-169.708" rx="4.00002" ry="4.00002"/>
<polygon fill="#9b2195" stroke="#9b2195" points="241.812,-124.429 246.808,-114.667 242.063,-119.435 242.313,-114.441 242.313,-114.441 242.313,-114.441 242.063,-119.435 237.819,-114.216 241.812,-124.429 241.812,-124.429"/>
<text text-anchor="middle" x="283" y="-143.8" font-family="Times,serif" font-size="14.00">matches_one</text>
</g>
<!-- User&#45;&gt;Match -->
<g id="edge4" class="edge"><title>User&#45;&gt;Match</title>
<path fill="none" stroke="#c04cfc" d="M333.579,-165.963C328.911,-157.039 324.039,-148.306 319,-140 315.481,-134.201 311.574,-128.359 307.478,-122.624"/>
<ellipse fill="none" stroke="#c04cfc" cx="335.449" cy="-169.6" rx="4.00002" ry="4.00002"/>
<polygon fill="#c04cfc" stroke="#c04cfc" points="307.291,-122.368 304.991,-111.646 304.328,-118.34 301.366,-114.312 301.366,-114.312 301.366,-114.312 304.328,-118.34 297.74,-116.979 307.291,-122.368 307.291,-122.368"/>
<text text-anchor="middle" x="362.5" y="-143.8" font-family="Times,serif" font-size="14.00">matches_two</text>
</g>
<!-- Interaction -->
<g id="node5" class="node"><title>Interaction</title>
<path fill="none" stroke="black" d="M429,-0.5C429,-0.5 649,-0.5 649,-0.5 655,-0.5 661,-6.5 661,-12.5 661,-12.5 661,-109.5 661,-109.5 661,-115.5 655,-121.5 649,-121.5 649,-121.5 429,-121.5 429,-121.5 423,-121.5 417,-115.5 417,-109.5 417,-109.5 417,-12.5 417,-12.5 417,-6.5 423,-0.5 429,-0.5"/>
<text text-anchor="middle" x="539" y="-106.3" font-family="Times,serif" font-size="14.00">Interaction</text>
<polyline fill="none" stroke="black" points="417,-98.5 661,-98.5 "/>
<text text-anchor="start" x="425" y="-83.3" font-family="Times,serif" font-size="14.00">id :bigint</text>
<text text-anchor="start" x="425" y="-68.3" font-family="Times,serif" font-size="14.00">user_one_id :integer</text>
<text text-anchor="start" x="425" y="-53.3" font-family="Times,serif" font-size="14.00">user_two_id :integer</text>
<text text-anchor="start" x="425" y="-38.3" font-family="Times,serif" font-size="14.00">like :boolean</text>
<text text-anchor="start" x="425" y="-23.3" font-family="Times,serif" font-size="14.00">created_at :timestamp without time zone</text>
<text text-anchor="start" x="425" y="-8.3" font-family="Times,serif" font-size="14.00">updated_at :timestamp without time zone</text>
</g>
<!-- User&#45;&gt;Interaction -->
<g id="edge1" class="edge"><title>User&#45;&gt;Interaction</title>
<path fill="none" stroke="#abbbbd" d="M422.958,-166.069C427.389,-156.928 432.38,-148.132 438,-140 440.549,-136.312 443.326,-132.72 446.279,-129.231"/>
<ellipse fill="none" stroke="#abbbbd" cx="421.208" cy="-169.839" rx="4.00002" ry="4.00002"/>
<polygon fill="#abbbbd" stroke="#abbbbd" points="446.312,-129.194 456.348,-124.774 449.658,-125.478 453.004,-121.763 453.004,-121.763 453.004,-121.763 449.658,-125.478 449.66,-118.751 446.312,-129.194 446.312,-129.194"/>
<text text-anchor="middle" x="483" y="-143.8" font-family="Times,serif" font-size="14.00">interactions_one</text>
</g>
<!-- User&#45;&gt;Interaction -->
<g id="edge2" class="edge"><title>User&#45;&gt;Interaction</title>
<path fill="none" stroke="#92845b" d="M522.304,-166.156C524.327,-162.476 526.231,-158.756 528,-155 531.447,-147.68 533.97,-139.692 535.797,-131.571"/>
<ellipse fill="none" stroke="#92845b" cx="520.263" cy="-169.714" rx="4.00002" ry="4.00002"/>
<polygon fill="#92845b" stroke="#92845b" points="535.819,-131.459 542.117,-122.482 536.758,-126.548 537.697,-121.637 537.697,-121.637 537.697,-121.637 536.758,-126.548 533.277,-120.791 535.819,-131.459 535.819,-131.459"/>
<text text-anchor="middle" x="578.5" y="-143.8" font-family="Times,serif" font-size="14.00">interactions_two</text>
</g>
</g>
</svg>
